<svg width="1920" height="2969" viewBox="0 0 1920 2969" fill="none" xmlns="http://www.w3.org/2000/svg">
<path d="M372.5 1045C294.184 1109.91 295.181 1277.76 404 1308C596.5 1361.5 648.051 1243.37 895 1206.5C1039 1185 1145 1060.17 1163.4 938.24C1200.72 690.97 892.038 758.022 808 881.169C678 1071.67 478.988 956.74 372.5 1045Z" fill="#FFB703"/>
<path d="M498.629 1173.7L497.416 1167.25L496.286 1165.81L494.053 1153.92C493.693 1152.01 492.821 1150.65 491.436 1149.85C490.086 1149 488.133 1148.82 485.578 1149.3C483.917 1149.61 482.287 1150.21 480.688 1151.08C479.08 1151.91 477.768 1152.91 476.752 1154.07L471.115 1146.6C472.834 1144.95 474.992 1143.53 477.59 1142.34C480.222 1141.09 482.901 1140.21 485.626 1139.7C491.248 1138.65 495.836 1139.13 499.39 1141.15C502.98 1143.12 505.29 1146.85 506.323 1152.35L509.936 1171.58L498.629 1173.7ZM488.516 1176.2C485.748 1176.72 483.317 1176.69 481.225 1176.11C479.132 1175.53 477.423 1174.53 476.097 1173.11C474.813 1171.67 473.983 1169.95 473.607 1167.95C473.207 1165.82 473.395 1163.89 474.172 1162.16C474.983 1160.37 476.441 1158.87 478.546 1157.63C480.643 1156.36 483.48 1155.38 487.058 1154.71L495.235 1153.17L496.423 1159.5L489.907 1160.72C487.948 1161.09 486.624 1161.67 485.935 1162.46C485.288 1163.24 485.065 1164.17 485.265 1165.23C485.465 1166.3 486.03 1167.07 486.959 1167.56C487.888 1168.05 489.056 1168.16 490.461 1167.89C491.781 1167.65 492.914 1167.1 493.858 1166.26C494.838 1165.37 495.455 1164.2 495.71 1162.74L498.211 1166.9C498.02 1169.41 497.104 1171.45 495.462 1173.04C493.855 1174.58 491.54 1175.63 488.516 1176.2ZM545.877 1165.42C542.768 1166 540.05 1165.85 537.724 1164.96C535.439 1164.07 533.538 1162.4 532.02 1159.95C530.501 1157.5 529.354 1154.21 528.578 1150.08C527.817 1146.04 527.722 1142.59 528.29 1139.75C528.901 1136.9 530.13 1134.65 531.977 1132.98C533.824 1131.31 536.216 1130.19 539.155 1129.64C542.306 1129.05 545.296 1129.24 548.123 1130.21C550.993 1131.17 553.425 1132.85 555.42 1135.25C557.45 1137.6 558.808 1140.61 559.497 1144.27C560.193 1147.98 560.027 1151.32 558.998 1154.29C558.003 1157.21 556.347 1159.66 554.029 1161.64C551.746 1163.56 549.029 1164.82 545.877 1165.42ZM523.986 1168.94L515.078 1121.53L527.216 1119.25L530.709 1137.84L532.219 1149.4L534.432 1160.82L535.548 1166.76L523.986 1168.94ZM541.509 1156.25C542.872 1155.99 544.026 1155.45 544.971 1154.61C545.958 1153.76 546.655 1152.66 547.061 1151.3C547.503 1149.9 547.559 1148.32 547.231 1146.58C546.903 1144.83 546.286 1143.43 545.381 1142.36C544.51 1141.25 543.461 1140.47 542.234 1140.04C541.049 1139.6 539.775 1139.51 538.412 1139.77C537.049 1140.02 535.874 1140.58 534.887 1141.42C533.942 1142.26 533.245 1143.36 532.796 1144.73C532.381 1146.04 532.338 1147.57 532.666 1149.31C532.994 1151.06 533.598 1152.51 534.477 1153.67C535.39 1154.78 536.439 1155.55 537.624 1155.99C538.851 1156.42 540.147 1156.51 541.509 1156.25ZM592.275 1156.7C588.485 1157.41 584.977 1157.28 581.75 1156.29C578.523 1155.31 575.806 1153.64 573.598 1151.28C571.425 1148.86 570.011 1145.91 569.354 1142.42C568.698 1138.93 568.948 1135.68 570.105 1132.69C571.304 1129.69 573.233 1127.16 575.892 1125.12C578.542 1123.03 581.763 1121.64 585.553 1120.92C589.343 1120.21 592.852 1120.35 596.078 1121.33C599.34 1122.26 602.053 1123.91 604.218 1126.28C606.383 1128.65 607.794 1131.58 608.45 1135.07C609.106 1138.57 608.86 1141.83 607.711 1144.87C606.555 1147.86 604.63 1150.41 601.937 1152.5C599.286 1154.59 596.066 1155.99 592.275 1156.7ZM590.463 1147.05C591.868 1146.79 593.043 1146.24 593.988 1145.4C594.975 1144.55 595.672 1143.45 596.079 1142.09C596.478 1140.7 596.513 1139.12 596.185 1137.38C595.857 1135.63 595.261 1134.22 594.398 1133.15C593.527 1132.04 592.478 1131.26 591.251 1130.83C590.066 1130.39 588.771 1130.31 587.366 1130.57C586.003 1130.83 584.828 1131.38 583.841 1132.22C582.896 1133.06 582.199 1134.16 581.75 1135.53C581.335 1136.84 581.292 1138.37 581.62 1140.12C581.948 1141.86 582.551 1143.31 583.43 1144.47C584.344 1145.58 585.393 1146.35 586.578 1146.79C587.805 1147.22 589.1 1147.31 590.463 1147.05ZM638.399 1148.03C635.588 1148.56 632.95 1148.48 630.485 1147.8C628.062 1147.11 625.992 1145.71 624.274 1143.61C622.591 1141.45 621.409 1138.57 620.729 1134.95L617.092 1115.59L629.229 1113.31L632.495 1130.69C632.999 1133.37 633.849 1135.19 635.044 1136.16C636.283 1137.12 637.817 1137.42 639.649 1137.08C640.841 1136.86 641.875 1136.38 642.75 1135.64C643.626 1134.9 644.25 1133.88 644.622 1132.57C644.986 1131.23 644.988 1129.6 644.628 1127.68L641.495 1111.01L653.632 1108.73L660.139 1143.35L648.576 1145.52L646.739 1135.75L649.491 1138.07C648.779 1140.85 647.415 1143.09 645.397 1144.8C643.372 1146.46 641.04 1147.53 638.399 1148.03ZM689.912 1138.35C685.483 1139.18 681.83 1138.74 678.951 1137.04C676.065 1135.29 674.206 1132.2 673.373 1127.77L667.791 1098.06L679.929 1095.78L685.487 1125.36C685.719 1126.59 686.244 1127.51 687.061 1128.1C687.871 1128.66 688.808 1128.83 689.873 1128.63C691.321 1128.36 692.488 1127.77 693.374 1126.85L697.973 1134.78C697.079 1135.66 695.914 1136.38 694.48 1136.96C693.053 1137.58 691.531 1138.05 689.912 1138.35ZM666.142 1117.09L664.437 1108.02L689.543 1103.3L691.248 1112.37L666.142 1117.09ZM772.77 1085.74C775.453 1085.24 777.942 1085.34 780.237 1086.06C782.567 1086.72 784.54 1088.07 786.156 1090.1C787.815 1092.13 788.981 1094.93 789.653 1098.51L793.375 1118.31L781.237 1120.59L777.888 1102.77C777.424 1100.3 776.619 1098.6 775.474 1097.67C774.321 1096.69 772.935 1096.36 771.317 1096.66C770.167 1096.88 769.176 1097.35 768.343 1098.08C767.51 1098.81 766.946 1099.8 766.651 1101.05C766.348 1102.25 766.365 1103.74 766.701 1105.53L769.93 1122.72L757.793 1125L754.443 1107.18C753.979 1104.71 753.175 1103 752.03 1102.07C750.919 1101.09 749.533 1100.76 747.873 1101.07C746.68 1101.29 745.667 1101.77 744.834 1102.5C744.044 1103.22 743.48 1104.21 743.143 1105.46C742.84 1106.67 742.856 1108.16 743.192 1109.95L746.422 1127.14L734.284 1129.42L727.778 1094.79L739.34 1092.62L741.153 1102.27L738.337 1099.95C739.15 1097.24 740.548 1095.06 742.531 1093.41C744.505 1091.71 746.855 1090.61 749.581 1090.1C752.69 1089.52 755.568 1089.81 758.214 1090.99C760.895 1092.12 762.956 1094.29 764.398 1097.5L760.281 1097.41C760.988 1094.37 762.428 1091.83 764.602 1089.79C766.811 1087.7 769.533 1086.35 772.77 1085.74ZM826.111 1112.76C822.023 1113.52 818.301 1113.43 814.947 1112.47C811.627 1111.46 808.863 1109.78 806.655 1107.42C804.482 1105 803.072 1102.07 802.423 1098.62C801.775 1095.17 802.008 1091.95 803.122 1088.97C804.271 1085.93 806.153 1083.39 808.769 1081.36C811.377 1079.28 814.491 1077.9 818.111 1077.22C821.518 1076.58 824.759 1076.7 827.834 1077.58C830.901 1078.41 833.517 1080.01 835.682 1082.39C837.847 1084.76 839.29 1087.86 840.01 1091.69C840.09 1092.12 840.161 1092.61 840.222 1093.17C840.283 1093.73 840.337 1094.25 840.382 1094.73L812.977 1099.88L811.777 1093.49L832.73 1089.55L828.466 1092.21C828.213 1090.62 827.659 1089.32 826.804 1088.29C825.992 1087.25 824.972 1086.51 823.744 1086.08C822.56 1085.64 821.243 1085.56 819.795 1085.83C818.347 1086.11 817.13 1086.67 816.142 1087.51C815.198 1088.35 814.539 1089.42 814.167 1090.73C813.787 1091.99 813.745 1093.41 814.041 1094.98L814.389 1096.84C814.709 1098.54 815.326 1099.95 816.24 1101.05C817.196 1102.15 818.398 1102.92 819.846 1103.35C821.287 1103.74 822.922 1103.76 824.754 1103.42C826.457 1103.1 827.861 1102.59 828.966 1101.9C830.105 1101.16 831.174 1100.16 832.175 1098.92L839.811 1104.36C838.495 1106.5 836.714 1108.29 834.471 1109.73C832.219 1111.12 829.433 1112.13 826.111 1112.76ZM860.454 1106.3C858.41 1106.69 856.557 1106.33 854.895 1105.23C853.234 1104.13 852.207 1102.54 851.815 1100.45C851.407 1098.28 851.785 1096.42 852.951 1094.88C854.108 1093.3 855.709 1092.31 857.753 1091.93C859.797 1091.54 861.646 1091.88 863.3 1092.94C864.945 1093.95 865.972 1095.54 866.38 1097.71C866.772 1099.8 866.394 1101.66 865.244 1103.29C864.095 1104.91 862.498 1105.92 860.454 1106.3Z" fill="white"/>
<path d="M1123.39 268.534C998.633 304.532 924.818 323.531 782.384 294.033C738.719 284.989 427.279 244.32 360.282 479.021C289.065 728.506 500.116 822 641.51 822C824.696 822 798.239 669.509 1036.68 678.009C1217.11 684.44 1418.14 707.508 1450.89 503.02C1483.64 298.533 1250.08 231.979 1123.39 268.534Z" fill="#2B3E70"/>
<path d="M1193.24 282.5C1181.73 320.392 1042.6 349.71 1023.74 325C1071.74 258 1069.18 302.394 1092.74 252.5C1109.74 216.5 1138.45 226 1148.24 246.5C1164.24 280 1202.44 252.187 1193.24 282.5Z" fill="#2B3E70"/>
<path d="M409.438 699.328C453.57 681.097 552.507 768.358 543.88 804.833C493.237 801.5 492.168 788.104 443.737 801.5C420.237 808 416.737 782 423.737 767.5C432.333 743.312 374.133 713.914 409.438 699.328Z" fill="#2B3E70"/>
<path d="M445.639 812.744C454.092 810.168 459.31 814.83 459.265 823.931C459.245 827.94 457.827 831.537 455.947 834.397C453.598 837.972 444.075 845.835 434.766 841.931C427.319 838.808 427.661 829.542 433.449 825.021C439.237 820.5 438.237 815 445.639 812.744Z" fill="#2B3E70"/>
<path d="M1179.55 248.63C1154.77 247.224 1158.97 228.997 1164.17 220.058C1184.13 169.836 1212.61 184.896 1222.87 203.956C1234.72 225.971 1210.51 250.388 1179.55 248.63Z" fill="#2B3E70"/>
<path d="M1250.24 200.143C1241.27 203.038 1240.74 189.346 1241.59 182.139C1245.12 169.959 1258.98 171.318 1262.51 174.283C1266.04 177.248 1269.62 184.62 1265.86 191.051C1263.12 195.729 1259.21 197.247 1250.24 200.143Z" fill="#2B3E70"/>
<path d="M367.237 838.5C378.237 830.5 394.737 831.676 404.675 835.581C433.737 847 407.773 875.566 394.737 878.5C373.917 883.186 350.759 850.485 367.237 838.5Z" fill="#2B3E70"/>
<path d="M1219.77 946.196C1214.22 942.528 1217.72 933.9 1217.81 928.678C1218.06 913.406 1235.59 920.405 1239.17 925.874C1244.89 934.609 1228.09 951.691 1219.77 946.196Z" fill="#F7B611"/>
<path d="M351.114 1746.49C317.425 1728.92 336.258 1701.46 364.856 1696.37C386.616 1692.49 400.462 1709.2 403.194 1722.28C407.557 1743.17 369.179 1755.91 351.114 1746.49Z" fill="#2B3E70"/>
<path d="M1429.81 876.883C1359.53 921.422 1250.72 891.25 1228.95 825.084C1214.57 745.244 1286.18 717.266 1368.33 733.833C1449.3 750.163 1503.22 687.285 1521.75 744.128C1527.36 761.336 1517.65 821.209 1429.81 876.883Z" fill="#2B3E70"/>
<path d="M1867.92 2280.18C1952.67 2243.22 2111.2 2305.31 2124.94 2468.56C2125.61 2661.63 2023.15 2704.02 1916.96 2637.87C1812.29 2572.66 1739.23 2630.97 1689.93 2542.48C1640.63 2454 1715.78 2346.54 1867.92 2280.18Z" fill="#2B3E70"/>
<path d="M51.8457 1632.82C-64.5939 1563.82 -127.036 1472.76 -39.6171 1328.43C29.5505 991.598 158.697 1199.68 213.487 1279.12C277.629 1372.12 439.08 1405.68 400.268 1569.68C376.294 1670.98 221.448 1733.33 51.8457 1632.82Z" fill="#2B3E70"/>
<path d="M2074.08 1340.18C2153.53 1364.86 2156.34 1482.45 2120.04 1541.89C2068.54 1604.57 1985.9 1575.24 1971.48 1492.69C1959.38 1423.41 1871.11 1409.1 1915.68 1342.87C1935.96 1312.73 1994.62 1315.5 2074.08 1340.18Z" fill="#FFB703"/>
<path d="M113.24 2773.49C119.912 2680.42 227.473 2655.34 294.598 2673.94C369.004 2706.27 363.467 2793.79 288.041 2830.3C224.744 2860.95 235.198 2949.75 159.283 2925.07C124.735 2913.83 106.568 2866.56 113.24 2773.49Z" fill="#FFB703"/>
<path d="M75.7515 315.305C-35.4123 400.116 -108.208 414.491 -162.225 405.801L-202.86 352.817L-257.17 92.8884L391.422 -213.115C467.016 -175.79 435.947 1.4539 263.648 76.9817C91.3491 152.509 202.793 218.38 75.7515 315.305Z" fill="#FFB703"/>
<path d="M1824.83 166.093C1835.5 53.0844 1943.39 20.387 1996.01 18.1644L2230.9 405.963C2161.23 491.676 2015.53 664.759 1990.06 671.389C1958.22 679.676 1768.68 579.285 1761.39 413.08C1754.77 261.999 1811.49 307.354 1824.83 166.093Z" fill="#2B3E70"/>
<path d="M1125.98 987.469C1093.33 965.055 1107.39 823.565 1136.64 813.048C1186.02 879.039 1144.48 863.193 1184.93 900.719C1214.11 927.796 1196.39 952.296 1173.89 955.44C1137.12 960.578 1152.1 1005.4 1125.98 987.469Z" fill="#FFB703"/>
</svg>
